<?xml version="1.0" encoding="UTF-8" standalone="no"?>
<!-- Created with Inkscape (http://www.inkscape.org/) -->

<svg
   width="512mm"
   height="512mm"
   viewBox="0 0 512 512"
   version="1.1"
   id="svg1"
   inkscape:version="1.3.2 (091e20e, 2023-11-25, custom)"
   xml:space="preserve"
   inkscape:export-filename="Rastergrafik.png"
   inkscape:export-xdpi="25.4"
   inkscape:export-ydpi="25.4"
   sodipodi:docname="app_icon_foreground_monochrome.svg"
   xmlns:inkscape="http://www.inkscape.org/namespaces/inkscape"
   xmlns:sodipodi="http://sodipodi.sourceforge.net/DTD/sodipodi-0.dtd"
   xmlns:xlink="http://www.w3.org/1999/xlink"
   xmlns="http://www.w3.org/2000/svg"
   xmlns:svg="http://www.w3.org/2000/svg"><sodipodi:namedview
     id="namedview1"
     pagecolor="#505050"
     bordercolor="#eeeeee"
     borderopacity="1"
     inkscape:showpageshadow="0"
     inkscape:pageopacity="0"
     inkscape:pagecheckerboard="0"
     inkscape:deskcolor="#505050"
     inkscape:document-units="mm"
     inkscape:zoom="0.32279166"
     inkscape:cx="845.74675"
     inkscape:cy="1008.3904"
     inkscape:window-width="1920"
     inkscape:window-height="1171"
     inkscape:window-x="-9"
     inkscape:window-y="-9"
     inkscape:window-maximized="1"
     inkscape:current-layer="layer1" /><defs
     id="defs1"><linearGradient
       id="linearGradient2"
       inkscape:collect="always"><stop
         style="stop-color:#ffffff;stop-opacity:1;"
         offset="0"
         id="stop1" /><stop
         style="stop-color:#ffffff;stop-opacity:1;"
         offset="1"
         id="stop2" /></linearGradient><linearGradient
       id="linearGradient14"
       inkscape:collect="always"><stop
         style="stop-color:#aa5cc3;stop-opacity:1;"
         offset="0"
         id="stop14" /><stop
         style="stop-color:#00a4dc;stop-opacity:1;"
         offset="1"
         id="stop15" /></linearGradient><linearGradient
       id="paint0_linear_2138_3705"
       x1="11.9999"
       y1="30.000601"
       x2="71.998901"
       y2="63.002399"
       gradientUnits="userSpaceOnUse"
       gradientTransform="matrix(44.528301,0,0,44.528301,866.26197,-1005.2493)"><stop
         stop-color="#AA5CC3"
         id="stop10"
         offset="0"
         style="stop-color:#009264;stop-opacity:1;" /><stop
         offset="1"
         stop-color="#00A4DC"
         id="stop11"
         style="stop-color:#a49844;stop-opacity:1;" /></linearGradient><linearGradient
       inkscape:collect="always"
       xlink:href="#linearGradient14"
       id="linearGradient15"
       x1="344.19385"
       y1="414.36868"
       x2="1509.3508"
       y2="1121.4755"
       gradientUnits="userSpaceOnUse" /><linearGradient
       inkscape:collect="always"
       xlink:href="#linearGradient2"
       id="linearGradient17"
       gradientUnits="userSpaceOnUse"
       x1="344.19385"
       y1="414.36868"
       x2="1509.3508"
       y2="1121.4755" /></defs><g
     inkscape:label="Ebene 1"
     inkscape:groupmode="layer"
     id="layer1"><path
       style="fill:#000000;stroke-width:1.87531"
       d="m 22.824532,304.93726 c 8.464633,-28.87753 15.743595,-56.93144 29.365592,-83.26235 10.72042,-20.72226 23.808369,-40.87513 40.660051,-57.73972 17.287155,-17.30039 37.937975,-32.25446 60.538295,-43.09559 29.81845,-14.30358 62.78033,-24.855936 96.2288,-27.614644 24.48435,-2.019379 49.71408,1.612546 73.1881,8.368074 23.99207,6.90462 46.93095,18.05291 66.8632,32.21709 19.28031,13.70088 35.46969,31.24767 49.24383,49.79004 12.59672,16.95731 21.95877,35.97627 29.8174,55.2293 7.27184,17.81549 14.94763,34.00245 15.81223,55.2293 0.3258,7.99762 13.84401,7.2913 19.42646,15.89934 13.98636,16.75896 6.4072,27.19013 1.80708,39.74835 -4.22456,11.53293 -14.94936,20.52087 -25.29951,28.03306 -18.07648,13.11997 -40.14252,21.20624 -61.89366,28.03302 -22.40488,7.03197 -45.97154,11.48904 -69.57389,12.97054 -21.37804,1.34192 -42.73033,-4.18914 -64.15253,-3.76562 -14.23235,0.2814 -29.56279,2.46227 -42.46716,4.18406 -38.38787,-0.60876 -79.9418,2.16008 -119.26949,-3.34726 C 94.075014,411.74695 64.029497,406.98731 38.184993,394.05726 25.134992,387.52832 11.483377,379.1023 4.7533961,366.86101 -0.46159365,357.37537 -1.1772389,345.39341 1.5909486,335.06233 4.7095363,323.42352 19.469387,316.3835 22.824532,304.93726 Z"
       id="path5"
       sodipodi:nodetypes="saaaaaaaascaaaaacaaaas" /><path
       style="fill:#ffffff;stroke-width:1.87531"
       d="M 256,262.21298 V 249.78702"
       id="path1" /><g
       id="g14"
       style="fill:url(#linearGradient15)"
       transform="matrix(0.38973578,0,0,0.430406,-32.00827,-32.109806)"><path
         style="fill:url(#linearGradient17);stroke-width:4.57878"
         d="m 778.97664,1027.3836 c -47.19398,-35.60433 -72.71575,-38.01464 -113.60076,-46.66143 -77.61384,-16.41461 -160.81854,2.31523 -239.95263,-7.77692 -66.07032,-8.4261 -138.81243,-11.63364 -193.58496,-43.74514 -17.04511,-9.99303 -37.87202,-25.40787 -35.93494,-42.77301 3.41046,-30.57329 46.33571,-49.99756 78.82503,-64.15954 36.64633,-15.974 80.57332,-22.48211 121.71508,-19.44229 43.24844,3.19548 85.09109,19.33156 121.7151,38.88456 44.48822,23.75159 86.29035,72.24048 113.60076,92.35087 70.90113,54.54754 78.24062,49.31713 122.8743,65.13163 47.22243,16.73167 98.4273,26.78547 149.5357,30.13557 67.62926,4.433 137.18238,0.6298 202.85848,-13.6097 66.9675,-14.5194 133.8593,-36.85845 188.9482,-71.93638 34.9498,-22.25436 76.1294,-48.4687 84.621,-84.57392 5.415,-23.02405 -7.5544,-49.07068 -25.5022,-67.07588 -4.7669,-4.78219 -19.7063,-8.74902 -19.7063,-8.74902 -17.4795,47.49945 -51.9049,77.18148 -91.5761,104.98833 -37.9222,26.58089 -85.9839,42.48204 -133.307,54.43837 -53.3708,13.48432 -110.0686,20.34065 -165.76437,18.47019 C 893.39863,959.55563 850.21264,959.8711 794.04614,934.0607 734.89467,906.87859 695.72537,881.12325 650.3064,850.45887 614.95446,826.59118 590.50085,793.032 550.61593,772.68973 518.2561,751.5848 481.31829,740.07778 442.81113,731.86095 c -69.26433,-3.94068 -123.47863,-8.915 -217.92799,30.13554 -34.38935,18.80829 -68.77869,38.81162 -103.16804,72.90856 -16.22167,24.74232 -25.572516,32.70756 -25.588202,51.21812 -0.01289,15.20792 9.598282,24.74827 20.951432,42.10483 28.14454,43.02705 102.545,61.15016 151.85409,73.8807 65.79186,12.7 135.68673,27.8577 180.83387,28.1913 85.73391,4.1543 170.74754,7.4026 250.38534,3.8885 29.23094,-1.9142 87.50007,-0.2602 78.82501,-6.8049 z"
         id="path6"
         sodipodi:nodetypes="saaaaaaacaaaaaacaaasaccccascccs" /><path
         style="fill:#ffffff;stroke-width:4.57878"
         d="m 173.87871,774.63397 c 34.94995,-17.58172 45.33642,-39.87063 113.60076,-51.52206 89.01528,-15.19322 86.62525,-13.69501 120.55591,-10.69324 59.61688,5.27416 118.0694,16.82093 163.44599,50.54993 52.80416,39.25001 85.05242,76.19206 135.62541,105.96043 54.7397,32.22098 113.50684,63.62946 178.51548,76.79702 45.82281,9.28144 95.53216,9.04787 141.42134,-10e-6 92.855,-18.30805 130.942,-15.06917 256.1813,-106.93253 0,0 36.6564,-21.11798 34.7758,-56.38262 -3.1719,-59.47967 -26.6446,-115.61316 -54.482,-169.14786 -27.6845,-53.24056 -64.1183,-104.34336 -110.1232,-147.76135 -46.7372,-44.10913 -114.6925,-89.8638 -164.60521,-110.82102 -43.3793,-18.21399 -93.55192,-39.89267 -165.76437,-47.63359 -67.88335,-7.27686 -146.92838,-5.96511 -215.6096,16.52594 -65.98347,21.60762 -105.37669,24.65952 -216.7688,102.07198 -39.55438,27.4885 -80.61639,62.67979 -114.75995,114.70947 -27.96232,42.61039 -52.33228,74.37826 -77.66583,147.76135 -5.93556,17.1934 -17.59553,47.36246 -24.34303,86.51816 z"
         id="path7"
         sodipodi:nodetypes="csssaaacsaassssssc" /><g
         id="path1-3-7"><path
           style="color:#000000;fill:#ffffff;-inkscape-stroke:none"
           d="m 286.46882,632.42412 c -8.53832,-45.54845 142.69972,-208.29015 181.22894,-199.24434 38.50163,9.35604 99.2773,224.77409 69.82384,260.12901 -27.58007,32.52944 -241.05942,-17.66668 -251.05278,-60.88467 z"
           id="path2" /><path
           style="color:#000000;fill:#000000;-inkscape-stroke:none"
           d="m 463.61719,427.30078 c -5.43536,0.10744 -11.19588,2.07411 -17.45117,5.01758 -8.3404,3.92463 -17.61303,9.90381 -27.54102,17.40039 -19.85598,14.99315 -42.26746,36.08427 -63.22656,58.9043 -20.95911,22.82002 -40.42952,47.33082 -54.26563,69.25781 -13.8361,21.92699 -22.83189,40.70624 -20.04883,55.55273 l 0.0215,0.11328 0.0254,0.11133 c 1.70521,7.37449 7.09667,13.56236 14.45312,19.41211 7.35646,5.84976 16.93922,11.37431 28.11719,16.63086 22.35594,10.5131 51.1034,19.88675 80.42578,26.89844 29.32239,7.01169 59.16239,11.64772 83.75391,12.47266 12.29576,0.41246 23.27215,-0.11277 32.39258,-1.89063 9.12043,-1.77786 16.62825,-4.6693 21.42773,-10.33008 l 0.0137,-0.0176 0.0156,-0.0195 c 4.85381,-5.82634 7.12171,-13.97346 8.26758,-23.8164 1.14587,-9.84295 1.01171,-21.49651 -0.0879,-34.39844 -2.19922,-25.80387 -8.30169,-56.5764 -16.53516,-86.55664 -8.23347,-29.98024 -18.58319,-59.1177 -29.44922,-81.625 -5.43301,-11.25365 -10.97792,-20.84798 -16.62891,-28.17188 -5.65098,-7.32389 -11.30894,-12.69063 -18.30468,-14.39062 l -0.0215,-0.004 -0.0215,-0.006 c -1.7459,-0.4099 -3.52025,-0.58073 -5.33203,-0.54492 z m 0.29297,11.05078 c 1.01126,-0.0518 1.85391,0.008 2.51367,0.16016 2.6326,0.64918 7.28237,4.05531 12.19922,10.42773 4.92707,6.38568 10.21677,15.43231 15.43554,26.24219 10.43755,21.61977 20.66051,50.30059 28.75196,79.76367 8.09145,29.46309 14.06603,59.76108 16.18164,84.58399 1.0578,12.41145 1.14068,23.45976 0.12304,32.20117 -1.01572,8.72502 -3.2851,15.03169 -5.78906,18.05078 -2.10398,2.46722 -7.29246,5.1151 -15.14844,6.64648 -7.87224,1.53456 -18.17718,2.08761 -29.92968,1.69336 -23.505,-0.78849 -52.83015,-5.30433 -81.57422,-12.17773 -28.74407,-6.8734 -56.96469,-16.11908 -78.3086,-26.15625 -10.67195,-5.01859 -19.62222,-10.25251 -25.96093,-15.29297 -6.27944,-4.99332 -9.7214,-9.77538 -10.55664,-13.19922 -1.40948,-7.9853 5.2845,-26.54245 18.55078,-47.5664 13.32363,-21.11486 32.47109,-45.26518 53.07031,-67.69336 20.59922,-22.42819 42.68718,-43.17213 61.75781,-57.57227 9.53532,-7.20007 18.33172,-12.80867 25.60352,-16.23047 5.45385,-2.56635 10.0203,-3.72416 13.08008,-3.88086 z"
           id="path3" /></g><g
         id="path1-3-7-2"><path
           style="color:#000000;fill:#ffffff;-inkscape-stroke:none"
           d="m 536.76627,383.18353 c 28.62476,-36.44431 250.69697,-29.98377 269.29111,4.95311 18.34266,35.12062 -103.59305,222.81799 -149.5946,223.97304 -42.64191,0.70145 -145.60964,-192.92377 -119.69651,-228.92615 z"
           id="path4" /><path
           style="color:#000000;fill:#000000;-inkscape-stroke:none"
           d="m 652.10742,353.29883 c -23.06207,0.31209 -45.45115,1.92269 -64.6582,4.95898 -25.6094,4.04839 -45.66196,9.66201 -54.99219,21.54102 l -0.0703,0.0918 -0.0664,0.0918 c -4.42168,6.14326 -5.52223,14.27802 -5.07226,23.66602 0.44996,9.388 2.61231,20.23662 6.02734,32.10742 6.83006,23.7416 18.73005,51.53652 32.78516,78.20898 14.0551,26.67246 30.2389,52.16829 45.82812,71.20508 7.79461,9.5184 15.42276,17.42653 22.77149,23.11328 7.34873,5.68676 14.47203,9.42676 21.89257,9.30469 h 0.0234 l 0.0234,-0.002 c 7.58087,-0.19035 15.20404,-3.85417 23.36133,-9.48047 8.15728,-5.62631 16.83299,-13.41092 25.81054,-22.74219 17.95511,-18.66254 37.07314,-43.53311 54.19141,-69.48633 17.11827,-25.95322 32.2074,-52.94406 41.9707,-75.95117 4.88165,-11.50356 8.44185,-21.99706 10.22461,-31.07422 1.78277,-9.07715 2.08872,-16.87053 -1.24414,-23.25195 l -0.01,-0.0176 -0.01,-0.0195 c -3.37027,-6.33246 -9.93386,-10.50043 -18.38281,-14.18555 -8.44896,-3.68511 -19.05673,-6.71765 -31.23828,-9.24218 -24.36312,-5.04908 -54.99654,-7.99922 -85.97266,-8.71875 -7.74403,-0.17989 -15.506,-0.22122 -23.19336,-0.11719 z m 0.14258,10.96094 c 7.55228,-0.10401 15.18582,-0.0674 22.79687,0.10937 30.44424,0.70718 60.60441,3.64476 84.00391,8.49414 11.69975,2.42469 21.71363,5.34367 29.08008,8.55664 7.35031,3.20593 11.78686,6.87139 13.07617,9.27344 1.24727,2.40738 1.75048,8.14847 0.19922,16.04687 -1.55439,7.91435 -4.86944,17.85632 -9.55859,28.90625 -9.37831,22.09987 -24.20827,48.69174 -41.03125,74.19727 -16.82299,25.50553 -35.66888,49.97077 -52.94141,67.92383 -8.63626,8.97653 -16.89037,16.31975 -24.13477,21.3164 -7.23274,4.98863 -13.47189,7.43911 -17.39257,7.54493 -3.24244,0.0432 -8.65177,-2.11236 -14.98047,-7.00977 -6.34301,-4.90849 -13.55173,-12.29278 -21.00196,-21.39062 -14.90044,-18.1957 -30.83342,-43.22469 -44.61132,-69.3711 -13.7779,-26.14641 -25.42835,-53.46403 -31.94922,-76.13086 -3.26044,-11.33341 -5.22362,-21.51431 -5.61133,-29.60351 -0.38413,-8.0144 0.94418,-13.75403 2.96875,-16.63868 5.07767,-6.32311 23.44531,-13.52295 47.99805,-17.40429 18.49565,-2.92383 40.43299,-4.50831 63.08984,-4.82031 z"
           id="path8" /></g><g
         id="path1-3-7-4"><path
           style="color:#000000;fill:#ffffff;-inkscape-stroke:none"
           d="m 615.75336,706.36385 c 9.8534,-45.28217 212.48787,-136.37046 244.46317,-113.04863 31.8292,23.59689 4.01614,245.68933 -36.87098,266.80142 C 785.28343,879.35461 608.14698,750.06516 615.75336,706.36385 Z"
           id="path9" /><path
           style="color:#000000;fill:#000000;-inkscape-stroke:none"
           d="m 847.33789,584.13672 c -2.10982,-0.0971 -4.3205,-0.083 -6.62305,0.01 -9.21017,0.37093 -20.07836,2.27055 -32.14062,5.31446 -24.12453,6.08781 -52.9746,16.79894 -81.16016,29.66797 -28.18555,12.86903 -55.65736,27.87408 -76.93359,42.6914 -21.27623,14.81732 -36.86837,28.61921 -40.08008,43.37891 l -0.0254,0.11133 -0.0195,0.11328 c -1.29791,7.45696 1.26234,15.25509 5.76367,23.50586 4.50133,8.25076 11.181,17.06884 19.43359,26.25976 16.50519,18.38184 39.34001,38.2001 63.625,56.06641 24.285,17.86631 49.97116,33.74382 72.30469,44.07031 11.16677,5.16325 21.48254,8.95114 30.57617,10.86133 9.09364,1.91019 17.13424,2.16615 23.75782,-1.18164 l 0.0215,-0.01 0.0215,-0.0117 c 6.73804,-3.47918 11.99617,-10.10275 16.88086,-18.7246 4.8847,-8.62186 9.29469,-19.41119 13.30079,-31.72461 8.01218,-24.62684 14.36153,-55.3463 18.43945,-86.16797 4.07792,-30.82167 5.87938,-61.69086 4.625,-86.65235 -0.62719,-12.48074 -2.00264,-23.47655 -4.35938,-32.42187 -2.35673,-8.94533 -5.48421,-16.09135 -11.26757,-20.37891 l -0.0156,-0.0117 -0.0176,-0.0137 c -4.34675,-3.17039 -9.77797,-4.46076 -16.10742,-4.75195 z m -6.18164,10.95703 c 8.0115,-0.32265 13.60173,1.04022 15.81055,2.63867 2.17271,1.62203 5.13297,6.56813 7.18359,14.35156 2.05483,7.7994 3.40926,18.1911 4.01172,30.17969 1.20491,23.97718 -0.53539,54.37602 -4.54297,84.66602 -4.00758,30.29 -10.2885,60.52617 -17.99609,84.21679 -3.8538,11.84532 -8.07798,22.05397 -12.41602,29.71094 -4.33042,7.64353 -8.8741,12.57029 -12.35547,14.37695 -2.89835,1.45403 -8.70698,1.87566 -16.53906,0.23047 -7.84911,-1.64876 -17.55708,-5.14886 -28.23047,-10.08398 -21.34678,-9.87024 -46.60607,-25.43724 -70.41211,-42.95117 -23.80603,-17.51394 -46.20683,-37.01085 -61.96484,-54.56055 -7.87901,-8.77485 -14.08822,-17.07625 -17.9668,-24.18555 -3.84099,-7.04039 -5.15279,-12.78423 -4.5918,-16.26367 1.80553,-7.904 15.19339,-22.39871 35.59571,-36.60742 20.48819,-14.26851 47.52106,-29.06874 75.22265,-41.7168 27.7016,-12.64806 56.12066,-23.16469 79.29102,-29.01172 11.58518,-2.92351 21.87025,-4.66683 29.90039,-4.99023 z"
           id="path10" /></g><g
         id="path1-3-7-9"><path
           style="color:#000000;fill:#ffffff;-inkscape-stroke:none"
           d="m 1135.0994,479.23402 c 7.1748,45.78304 -148.85416,203.93732 -187.09616,193.74535 -38.20516,-10.5013 -92.52291,-227.63762 -62.02712,-262.09752 28.53886,-31.6916 240.42458,24.8551 249.12328,68.35217 z"
           id="path11" /><path
           style="color:#000000;fill:#000000;-inkscape-stroke:none"
           d="m 918.68164,396.21289 c -5.42778,0.13981 -10.46606,0.56401 -15.05078,1.31641 -9.16944,1.5048 -16.76023,4.17057 -21.72656,9.68554 l -0.0156,0.0176 -0.0156,0.0195 c -5.02558,5.67885 -7.53541,13.75425 -8.97461,23.5586 -1.4392,9.80435 -1.65341,21.45771 -0.93946,34.38672 1.42792,25.85802 6.60855,56.79709 13.94336,87.00976 7.33481,30.21267 16.81072,59.6471 27,82.46875 5.09464,11.41083 10.35143,21.16692 15.78125,28.65625 5.42983,7.48933 10.92532,13.0216 17.86719,14.92969 l 0.0215,0.006 0.0195,0.006 c 6.93153,1.84734 14.45436,-0.11712 22.9082,-3.79102 8.45384,-3.6739 17.90147,-9.3715 28.04883,-16.56836 20.29467,-14.39371 43.32607,-34.80802 64.95707,-56.99219 21.631,-22.18416 41.824,-46.10324 56.3086,-67.60742 14.4845,-21.50417 24.0358,-40.00477 21.6972,-54.92773 l -0.018,-0.11524 -0.023,-0.11132 c -1.4843,-7.42211 -6.6886,-13.76918 -13.8672,-19.83594 -7.1785,-6.06676 -16.5913,-11.87499 -27.6074,-17.46289 -22.0321,-11.1758 -50.4859,-21.40319 -79.5859,-29.28711 -29.10004,-7.88392 -58.78982,-13.4081 -83.34575,-14.9668 -6.13898,-0.38967 -11.95503,-0.53433 -17.38281,-0.39453 z m 0.27344,10.96289 c 5.03532,-0.13059 10.54827,-0.005 16.41601,0.36719 23.47099,1.48983 52.64776,6.87899 81.17381,14.60742 28.5261,7.72843 56.4594,17.81255 77.4942,28.48242 10.5173,5.33494 19.3067,10.83311 25.4922,16.06055 6.1301,5.18072 9.4274,10.06619 10.1582,13.51367 1.1667,8.02644 -6.0778,26.37206 -19.9629,46.98633 -13.9481,20.70769 -33.8069,44.27683 -55.0664,66.08008 -21.2596,21.80324 -43.9572,41.87871 -63.44926,55.70312 -9.74601,6.91221 -18.70742,12.25384 -26.07813,15.45703 -7.35647,3.19701 -13.06343,3.94761 -15.69922,3.25391 -2.61237,-0.72873 -7.15763,-4.27239 -11.88086,-10.78711 -4.73424,-6.52992 -9.75078,-15.73054 -14.64453,-26.69141 -9.78748,-21.92172 -19.14913,-50.89443 -26.35742,-80.58593 -7.20828,-29.69151 -12.27676,-60.1543 -13.65039,-85.0293 -0.68681,-12.4375 -0.44025,-23.48427 0.83789,-32.19141 1.27523,-8.68734 3.73043,-14.92078 6.32227,-17.86523 2.17475,-2.4044 7.44172,-4.89851 15.34375,-6.19531 3.95727,-0.64943 8.51546,-1.03543 13.55078,-1.16602 z"
           id="path12" /></g><g
         id="path1-3-7-40"><path
           style="color:#000000;fill:#ffffff;-inkscape-stroke:none"
           d="M 1194.4995,873.45378 C 1153.567,895.18162 953.141,799.3316 950.29025,759.85755 c -2.5464,-39.5402 184.96115,-161.76753 227.48865,-144.19219 39.272,16.62937 54.9948,235.36638 16.7206,257.78842 z"
           id="path13" /><path
           style="color:#000000;fill:#000000;-inkscape-stroke:none"
           d="m 1168.2949,608.42969 c -4.2066,-0.066 -8.7545,0.46069 -13.623,1.38086 -9.7371,1.84034 -20.821,5.44229 -32.8086,10.33789 -23.9752,9.79119 -51.5285,24.78791 -77.6914,41.58398 -26.1629,16.79607 -50.88984,35.36205 -69.13479,52.44336 -9.12247,8.54065 -16.62915,16.69226 -21.93555,24.26953 -5.3064,7.57728 -8.74198,14.57922 -8.27929,21.76367 l 0.002,0.0215 0.002,0.0215 c 0.51671,7.15485 4.82813,13.62471 11.06055,20.41602 6.23242,6.7913 14.70313,13.85961 24.81836,21.10156 20.23042,14.4839 47.04392,29.58923 75.07422,42.79297 28.0303,13.20374 57.2306,24.48352 82.2852,31.1543 25.0545,6.67077 45.6619,9.65834 59.0039,2.57617 l 0.1015,-0.0547 0.1,-0.0566 c 6.5309,-3.82598 10.8298,-10.8182 14.2207,-19.58398 3.3909,-8.76578 5.8087,-19.56015 7.4942,-31.79688 3.3709,-24.47345 3.7491,-54.70572 1.7011,-84.78516 -2.0479,-30.07943 -6.5193,-59.94659 -13.0625,-83.66601 -3.2715,-11.85971 -7.0451,-22.17966 -11.4609,-30.35547 -4.4158,-8.17581 -9.412,-14.4792 -16.2461,-17.37305 l -0.023,-0.01 -0.021,-0.01 c -3.5042,-1.44817 -7.3695,-2.10585 -11.5762,-2.17187 z m -0.2148,11.04883 c 3.1984,0.0549 5.7694,0.49872 7.5801,1.24218 2.9824,1.27151 7.0566,5.43602 10.8613,12.48047 3.8114,7.0569 7.412,16.72679 10.539,28.0625 6.2541,22.67143 10.6859,52.00991 12.6934,81.4961 2.0075,29.48618 1.5934,59.18132 -1.625,82.54687 -1.6092,11.68278 -3.9356,21.78483 -6.8574,29.33789 -2.8953,7.48449 -6.4353,12.19688 -9.4551,14.01367 -7.2045,3.72405 -26.9121,2.86395 -50.9316,-3.53125 -24.1266,-6.4237 -52.8866,-17.49954 -80.4356,-30.47656 -27.549,-12.97702 -53.9349,-27.87803 -73.36522,-41.78906 -9.71514,-6.95552 -17.69109,-13.68038 -23.125,-19.60156 -5.42099,-5.90712 -7.99242,-11.05464 -8.19921,-13.77344 -0.16569,-2.70605 1.70068,-8.16205 6.31835,-14.75586 4.62664,-6.60661 11.68453,-14.35277 20.44727,-22.55664 17.52551,-16.40774 41.85481,-34.71437 67.56641,-51.22071 25.7116,-16.50633 52.8503,-31.24118 75.9141,-40.66015 11.5318,-4.70949 22.0538,-8.08241 30.7011,-9.7168 4.3237,-0.81719 8.1621,-1.15277 11.3731,-1.09765 z"
           id="path14" /></g></g></g></svg>
