<?xml version="1.0" encoding="UTF-8" standalone="no"?>
<!-- Created with Inkscape (http://www.inkscape.org/) -->

<svg
   width="512mm"
   height="512mm"
   viewBox="0 0 512 512"
   version="1.1"
   id="svg1"
   inkscape:version="1.3.2 (091e20e, 2023-11-25, custom)"
   xml:space="preserve"
   inkscape:export-filename="app_icon.png"
   inkscape:export-xdpi="15.875"
   inkscape:export-ydpi="15.875"
   sodipodi:docname="App_Icon.svg"
   xmlns:inkscape="http://www.inkscape.org/namespaces/inkscape"
   xmlns:sodipodi="http://sodipodi.sourceforge.net/DTD/sodipodi-0.dtd"
   xmlns:xlink="http://www.w3.org/1999/xlink"
   xmlns="http://www.w3.org/2000/svg"
   xmlns:svg="http://www.w3.org/2000/svg"><sodipodi:namedview
     id="namedview1"
     pagecolor="#505050"
     bordercolor="#eeeeee"
     borderopacity="1"
     inkscape:showpageshadow="0"
     inkscape:pageopacity="0"
     inkscape:pagecheckerboard="0"
     inkscape:deskcolor="#505050"
     inkscape:document-units="mm"
     inkscape:zoom="0.22824818"
     inkscape:cx="516.98112"
     inkscape:cy="865.2862"
     inkscape:window-width="1920"
     inkscape:window-height="1171"
     inkscape:window-x="-9"
     inkscape:window-y="-9"
     inkscape:window-maximized="1"
     inkscape:current-layer="layer1" /><defs
     id="defs1"><linearGradient
       id="linearGradient14"
       inkscape:collect="always"><stop
         style="stop-color:#aa5cc3;stop-opacity:1;"
         offset="0"
         id="stop14" /><stop
         style="stop-color:#00a4dc;stop-opacity:1;"
         offset="1"
         id="stop15" /></linearGradient><linearGradient
       id="paint0_linear_2138_3705"
       x1="11.9999"
       y1="30.000601"
       x2="71.998901"
       y2="63.002399"
       gradientUnits="userSpaceOnUse"
       gradientTransform="matrix(44.528301,0,0,44.528301,866.26197,-1005.2493)"><stop
         stop-color="#AA5CC3"
         id="stop10"
         offset="0"
         style="stop-color:#009264;stop-opacity:1;" /><stop
         offset="1"
         stop-color="#00A4DC"
         id="stop11"
         style="stop-color:#a49844;stop-opacity:1;" /></linearGradient><linearGradient
       inkscape:collect="always"
       xlink:href="#linearGradient14"
       id="linearGradient16"
       gradientUnits="userSpaceOnUse"
       x1="344.19385"
       y1="414.36868"
       x2="1581.2207"
       y2="1093.6549"
       gradientTransform="matrix(0.30423579,0,0,0.33598379,31.174803,31.09555)" /><linearGradient
       inkscape:collect="always"
       xlink:href="#linearGradient14"
       id="linearGradient17"
       gradientUnits="userSpaceOnUse"
       x1="344.19385"
       y1="414.36868"
       x2="1509.3508"
       y2="1121.4755"
       gradientTransform="matrix(0.30423579,0,0,0.33598379,31.174803,31.09555)" /><linearGradient
       inkscape:collect="always"
       xlink:href="#linearGradient14"
       id="linearGradient18"
       gradientUnits="userSpaceOnUse"
       x1="344.19385"
       y1="414.36868"
       x2="1509.3508"
       y2="1121.4755"
       gradientTransform="matrix(0.30423579,0,0,0.33598379,31.174803,31.09555)" /><linearGradient
       inkscape:collect="always"
       xlink:href="#linearGradient14"
       id="linearGradient19"
       gradientUnits="userSpaceOnUse"
       x1="344.19385"
       y1="414.36868"
       x2="1509.3508"
       y2="1121.4755"
       gradientTransform="matrix(0.30423579,0,0,0.33598379,31.174803,31.09555)" /><linearGradient
       inkscape:collect="always"
       xlink:href="#linearGradient14"
       id="linearGradient20"
       gradientUnits="userSpaceOnUse"
       x1="344.19385"
       y1="414.36868"
       x2="1509.3508"
       y2="1121.4755"
       gradientTransform="matrix(0.30423579,0,0,0.33598379,31.174803,31.09555)" /><linearGradient
       inkscape:collect="always"
       xlink:href="#linearGradient14"
       id="linearGradient21"
       gradientUnits="userSpaceOnUse"
       x1="344.19385"
       y1="414.36868"
       x2="1509.3508"
       y2="1121.4755"
       gradientTransform="matrix(0.30423579,0,0,0.33598379,31.174803,31.09555)" /><linearGradient
       inkscape:collect="always"
       xlink:href="#linearGradient14"
       id="linearGradient22"
       gradientUnits="userSpaceOnUse"
       x1="344.19385"
       y1="414.36868"
       x2="1509.3508"
       y2="1121.4755"
       gradientTransform="matrix(0.30423579,0,0,0.33598379,31.174803,31.09555)" /></defs><g
     inkscape:label="Ebene 1"
     inkscape:groupmode="layer"
     id="layer1"><rect
       id="solid-background"
       width="512"
       height="512"
       fill="#000b25"
       x="2.2737368e-13"
       y="1.4210855e-14"
       style="stroke-width:0.447213" /><path
       style="fill:#000000;stroke-width:1.46389"
       d="m 73.978425,294.20144 c 6.60767,-22.54239 12.28978,-44.44186 22.92341,-64.99633 8.368565,-16.17621 18.585285,-31.90794 31.740055,-45.07279 13.49472,-13.50505 29.61517,-25.17851 47.25745,-33.64131 23.27688,-11.16567 49.00762,-19.40306 75.11819,-21.55657 19.11297,-1.57634 38.80783,1.2588 57.13213,6.5323 18.7287,5.38988 36.63527,14.09247 52.19477,25.14933 15.05062,10.69518 27.6884,24.39256 38.44075,38.86711 9.83327,13.23724 17.14148,28.08383 23.27609,43.11314 5.67655,13.90714 11.66843,26.54301 12.34335,43.11313 0.25434,6.24309 10.80691,5.69174 15.1647,12.41136 10.91804,13.08238 5.0016,21.22518 1.41064,31.02838 -3.29779,9.00282 -11.66977,16.019 -19.74931,21.88318 -14.11087,10.24172 -31.33609,16.55403 -48.31548,21.88316 -17.48971,5.48928 -35.88633,8.96857 -54.31081,10.12505 -16.68813,1.04754 -33.35617,-3.27012 -50.07878,-2.9395 -11.11007,0.21965 -23.07731,1.92209 -33.15073,3.26615 -29.96638,-0.47521 -62.40424,1.68622 -93.10424,-2.61294 -22.67258,-3.17502 -46.12675,-6.89049 -66.301485,-16.98395 -10.18711,-5.09661 -20.843843,-11.67413 -26.097407,-21.22993 -4.070931,-7.40471 -4.629572,-16.75808 -2.468673,-24.82273 2.434442,-9.0855 13.956285,-14.58106 16.57538,-23.51624 z"
       id="path5"
       sodipodi:nodetypes="saaaaaaaascaaaaacaaaas" /><path
       style="fill:#ffffff;stroke-width:1.46389"
       d="m 256,260.84998 v -9.69996"
       id="path1" /><path
       style="fill:url(#linearGradient17);fill-opacity:1;fill-rule:nonzero;stroke-width:1.46391"
       d="m 268.16738,376.27979 c -14.3581,-11.96248 -22.12274,-12.77231 -34.56142,-15.67749 -23.61291,-5.51504 -48.92676,0.77788 -73.00218,-2.61292 -20.10095,-2.83103 -42.23171,-3.90871 -58.89547,-14.69766 -5.185734,-3.35749 -11.522026,-8.53663 -10.932697,-14.37103 1.037584,-10.27213 14.096977,-16.79837 23.981397,-21.55657 11.14912,-5.367 24.51329,-7.55362 37.03008,-6.53229 13.15773,1.07363 25.88776,6.49509 37.03009,13.06458 13.53491,7.98015 26.25261,24.27163 34.56142,31.02839 21.57066,18.32709 23.8036,16.56976 37.38276,21.88318 14.36675,5.62157 29.94511,8.99948 45.49411,10.12506 20.57524,1.48942 41.73579,0.2116 61.71681,-4.57264 20.37391,-4.87828 40.72479,-12.38384 57.48481,-24.16946 10.63298,-7.4771 23.16128,-16.28469 25.74473,-28.41546 1.64744,-7.73571 -2.29832,-16.48696 -7.75868,-22.53641 -1.45026,-1.60674 -5.99536,-2.93953 -5.99536,-2.93953 -5.31789,15.95904 -15.79133,25.93173 -27.86073,35.27438 -11.53729,8.93074 -26.15938,14.27327 -40.55676,18.29041 -16.23731,4.53051 -33.48681,6.83412 -50.43145,6.20568 -15.6202,-0.57932 -28.75892,-0.47333 -45.84678,-9.14521 -17.996,-9.13274 -29.9127,-17.78612 -43.73078,-28.08886 -10.75532,-8.01915 -18.19498,-19.29449 -30.3294,-26.12917 -9.84502,-7.09091 -21.08283,-10.95708 -32.79808,-13.7178 -21.07269,-1.32401 -37.56662,-2.9953 -66.301497,10.12505 -10.462471,6.31928 -20.924939,13.04007 -31.38741,24.49609 -4.935213,8.31302 -7.780075,10.98921 -7.784847,17.20846 -0.0039,5.10962 2.920141,8.31502 6.374175,14.14654 8.562577,14.45639 31.197859,20.54546 46.199449,24.82272 20.01624,4.26699 41.28076,9.35973 55.01614,9.47182 26.08332,1.39578 51.94751,2.48715 76.17618,1.30647 8.8931,-0.64314 26.62065,-0.0874 23.98139,-2.28633 z"
       id="path6"
       sodipodi:nodetypes="saaaaaaacaaaaaacaaasaccccascccs" /><path
       style="fill:url(#linearGradient16);fill-opacity:1;fill-rule:nonzero;stroke-width:1.46391"
       d="m 84.07493,291.36001 c 10.633025,-5.90718 13.792961,-13.39589 34.56142,-17.31058 27.08163,-5.10468 26.3545,-4.6013 36.67742,-3.59276 18.13759,1.77204 35.92094,5.65156 49.72612,16.98396 16.06491,13.18737 25.87599,25.5993 41.2621,35.60099 16.65378,10.82573 34.53285,21.37847 54.3108,25.80255 13.94094,3.11842 29.0643,3.03994 43.02543,0 28.24982,-6.15121 39.83725,-5.063 77.93952,-35.9276 0,0 11.15219,-7.0953 10.58005,-18.94364 -0.96501,-19.98421 -8.10624,-38.84415 -16.57538,-56.83094 -8.42261,-17.88797 -19.50708,-35.05768 -33.50342,-49.64542 -14.21912,-14.81995 -34.89356,-30.19278 -50.07879,-37.23407 -13.19754,-6.1196 -28.46184,-13.40329 -50.43146,-16.00411 -20.65254,-2.44491 -44.70087,-2.00418 -65.59615,5.55245 -20.07454,7.25981 -32.05936,8.2852 -65.94883,34.29453 -12.03386,9.23569 -24.52639,21.05939 -34.91408,38.54052 -8.50714,14.3164 -15.921357,24.98989 -23.628729,49.64542 -1.80581,5.7767 -5.35319,15.91302 -7.406021,29.0687 z"
       id="path7"
       sodipodi:nodetypes="csssaaacsaassssssc" /><g
       id="path1-3-7"><path
         style="color:#000000;fill:url(#linearGradient18);-inkscape-stroke:none"
         d="m 118.32887,243.5798 c -2.59766,-15.30354 43.41436,-69.98211 55.13633,-66.94287 11.71357,3.14348 30.20371,75.52045 21.24291,87.39913 -8.39084,10.92937 -73.3389,-5.93571 -76.37924,-20.45626 z"
         id="path13" /><path
         style="color:#000000;fill:#000000;-inkscape-stroke:none"
         d="m 173.9043,174.94141 c -2.21755,-0.57496 -4.53508,0.19098 -7.08789,1.51757 -2.55282,1.3266 -5.37594,3.33699 -8.39844,5.85743 -6.04501,5.04088 -12.86285,12.12711 -19.23828,19.79296 -6.37543,7.66586 -12.29583,15.89992 -16.5,23.25782 -4.20417,7.3579 -6.89911,13.66921 -6.07813,18.50586 l 0.006,0.0332 0.008,0.0332 c 0.50126,2.39396 2.1269,4.48406 4.36915,6.45313 2.24224,1.96906 5.16619,3.83166 8.57421,5.60156 6.81605,3.53979 15.57261,6.69171 24.50586,9.05078 8.93325,2.35907 18.02317,3.91912 25.53125,4.19727 3.75405,0.13907 7.11145,-0.0353 9.91407,-0.63867 2.80261,-0.60333 5.14045,-1.61467 6.58789,-3.5 l 0.004,-0.006 0.004,-0.006 c 1.4648,-1.94178 2.1384,-4.62616 2.48437,-7.90821 0.34598,-3.28205 0.30633,-7.18423 -0.0273,-11.50781 -0.66734,-8.64716 -2.52115,-18.97481 -5.02344,-29.03711 -2.50228,-10.06229 -5.64745,-19.84231 -8.94726,-27.39062 -1.64991,-3.77416 -3.33245,-6.98952 -5.04688,-9.44336 -1.71443,-2.45384 -3.40396,-4.26333 -5.625,-4.85938 l -0.008,-0.002 z m -0.88672,3.39062 c 0.70883,0.19311 2.15339,1.3303 3.65429,3.47852 1.5038,2.15235 3.11824,5.20101 4.70899,8.83984 3.1815,7.27767 6.29543,16.92429 8.75976,26.83398 2.46434,9.9097 4.28431,20.09833 4.92969,28.46094 0.32269,4.18131 0.34935,7.9091 0.0371,10.8711 -0.3116,2.95598 -1.01941,5.12385 -1.79297,6.15429 -0.65143,0.84612 -2.17634,1.69798 -4.54101,2.20703 -2.36717,0.50959 -5.48458,0.69643 -9.04688,0.56446 -7.12459,-0.26394 -16.03493,-1.77789 -24.76758,-4.08399 -8.73264,-2.30609 -17.30614,-5.40867 -23.78515,-8.77343 -3.23951,-1.68239 -5.95459,-3.43513 -7.87891,-5.125 -1.90987,-1.67719 -2.96736,-3.27532 -3.23633,-4.50782 -0.45977,-2.82822 1.61646,-9.06601 5.66211,-16.14648 4.0588,-7.10346 9.88425,-15.21906 16.15235,-22.75586 6.2681,-7.53681 12.9912,-14.50701 18.78906,-19.3418 2.89893,-2.41739 5.57256,-4.29972 7.76953,-5.4414 2.19207,-1.13914 3.87026,-1.41675 4.58594,-1.23438 z"
         id="path14" /></g><g
       id="path1-3-7-2"><path
         style="color:#000000;fill:url(#linearGradient19);-inkscape-stroke:none"
         d="m 194.47831,159.839 c 8.70868,-12.24469 76.27099,-10.07406 81.928,1.66417 5.58049,11.79996 -31.51672,74.86323 -45.51203,75.25131 -12.9732,0.23568 -44.29967,-64.81926 -36.41597,-76.91548 z"
         id="path11" /><path
         style="color:#000000;fill:#000000;-inkscape-stroke:none"
         d="m 236.63086,149.92578 c -9.43702,-0.24208 -18.96031,0.26686 -26.77344,1.63086 -7.81312,1.364 -13.99534,3.3148 -16.80664,7.26758 l -0.0195,0.0293 -0.0195,0.0293 c -1.3264,2.03514 -1.64926,4.69616 -1.51367,7.82031 0.13559,3.12416 0.78807,6.75488 1.82422,10.73243 2.07229,7.95508 5.68846,17.28624 9.96093,26.24023 4.27248,8.95399 9.19258,17.51329 13.93164,23.9043 2.36953,3.1955 4.68728,5.85094 6.92774,7.76562 2.24046,1.91469 4.42357,3.20303 6.7832,3.16016 h 0.008 0.01 c 2.39565,-0.0664 4.72653,-1.32339 7.21484,-3.21875 2.48832,-1.89536 5.12681,-4.51015 7.85742,-7.64453 5.46124,-6.26876 11.27334,-14.62079 16.47852,-23.33594 5.20518,-8.71515 9.79342,-17.7796 12.75781,-25.49414 1.4822,-3.85727 2.56173,-7.37203 3.09961,-10.39648 0.53788,-3.02446 0.62546,-5.57556 -0.36133,-7.66211 l -0.004,-0.006 -0.002,-0.006 c -0.99853,-2.07195 -3.01819,-3.51549 -5.60546,-4.76172 -2.58728,-1.24623 -5.82823,-2.26851 -9.54493,-3.11914 -7.43338,-1.70127 -16.7661,-2.69347 -26.20312,-2.93555 z m -0.0898,3.50195 c 9.24925,0.23727 18.414,1.22517 25.51171,2.84961 3.54886,0.81223 6.5823,1.78797 8.80664,2.85938 2.22042,1.06952 3.54665,2.25885 3.96485,3.12109 0.407,0.86546 0.55484,2.86437 0.0781,5.54492 -0.4774,2.68442 -1.49034,6.03357 -2.91992,9.75391 -2.85916,7.44068 -7.37317,16.37897 -12.49414,24.95313 -5.12097,8.57415 -10.85896,16.79854 -16.11523,22.83203 -2.62814,3.01674 -5.14047,5.48442 -7.33789,7.1582 -2.19264,1.67014 -4.07551,2.46809 -5.17969,2.50195 -0.88496,0.013 -2.51454,-0.67863 -4.43555,-2.32031 -1.92506,-1.64514 -4.12213,-4.12825 -6.39062,-7.1875 -4.53699,-6.1185 -9.38867,-14.53583 -13.58399,-23.32812 -4.19532,-8.7923 -7.74288,-17.97784 -9.73242,-25.61524 -0.99477,-3.8187 -1.59558,-7.25209 -1.71484,-10 -0.11832,-2.7262 0.2996,-4.72348 0.93554,-5.7207 1.56613,-2.16315 7.07152,-4.52098 14.52539,-5.82227 7.48089,-1.306 16.83278,-1.81734 26.08204,-1.58008 z"
         id="path12" /></g><g
       id="path1-3-7-4"><path
         style="color:#000000;fill:url(#linearGradient20);-inkscape-stroke:none"
         d="m 218.50901,268.42235 c 2.99776,-15.21407 64.64642,-45.81826 74.37445,-37.9825 9.68358,7.92817 1.22185,82.54763 -11.21747,89.64095 -11.57986,6.46364 -65.47111,-36.97551 -63.15698,-51.65845 z"
         id="path9" /><path
         style="color:#000000;fill:#000000;-inkscape-stroke:none"
         d="m 286.93945,227.44922 c -2.83077,0.1259 -6.15028,0.76747 -9.83008,1.79297 -7.35958,2.05099 -16.14432,5.65306 -24.72656,9.98047 -8.58224,4.3274 -16.94532,9.37284 -23.42383,14.35546 -6.4785,4.98263 -11.21992,9.69441 -12.16796,14.50586 l -0.008,0.0332 -0.004,0.0332 c -0.38099,2.41734 0.37268,4.99166 1.73437,7.74805 1.36169,2.75638 3.39096,5.71829 5.90039,8.80468 5.01886,6.1728 11.96823,12.83285 19.35938,18.8379 7.39114,6.00504 15.20846,11.34339 22.01758,14.82031 3.40456,1.73846 6.55172,3.01592 9.3457,3.66406 2.79398,0.64814 5.31836,0.73632 7.38281,-0.41602 l 0.008,-0.004 0.006,-0.004 c 2.09178,-1.1928 3.66301,-3.40108 5.14258,-6.28515 1.47957,-2.88408 2.81709,-6.49698 4.0332,-10.625 2.43224,-8.25605 4.36235,-18.56658 5.60157,-28.91016 1.23921,-10.34358 1.78488,-20.70448 1.40429,-29.06836 -0.19029,-4.18194 -0.607,-7.85999 -1.31836,-10.8418 -0.71135,-2.9818 -1.62444,-5.3299 -3.40429,-6.78711 l -0.004,-0.004 -0.006,-0.004 c -1.78482,-1.43764 -4.21219,-1.75285 -7.04297,-1.62695 z m 0.15625,3.49805 c 2.40902,-0.10715 4.03157,0.33567 4.68164,0.85546 0.64095,0.52888 1.58151,2.24247 2.21094,4.88086 0.6308,2.64416 1.04276,6.1501 1.22656,10.18946 0.36762,8.07872 -0.16212,18.30324 -1.38281,28.49218 -1.22068,10.18895 -3.13409,20.3581 -5.48437,28.33594 -1.17514,3.98892 -2.46275,7.43223 -3.78907,10.01758 -1.32405,2.58094 -2.73624,4.25072 -3.7539,4.83398 -0.83239,0.46127 -2.52131,0.60701 -4.87696,0.0605 -2.36061,-0.54761 -5.30492,-1.71862 -8.54492,-3.37305 -6.47999,-3.30885 -14.16052,-8.53583 -21.40039,-14.41796 -7.23987,-5.88214 -14.0548,-12.43046 -18.85156,-18.33008 -2.39838,-2.94981 -4.28879,-5.74019 -5.47656,-8.14453 -1.17956,-2.3877 -1.60168,-4.36426 -1.41407,-5.61914 0.57273,-2.79973 4.64679,-7.59945 10.85352,-12.37305 6.22773,-4.78975 14.44656,-9.75799 22.86719,-14.00391 8.42063,-4.24592 17.06062,-7.77545 24.08984,-9.73437 3.51461,-0.97946 6.63057,-1.56254 9.04492,-1.66992 z"
         id="path10" /></g><g
       id="path1-3-7-9"><path
         style="color:#000000;fill:url(#linearGradient21);-inkscape-stroke:none"
         d="m 376.51267,192.11041 c 2.18283,15.38236 -45.28677,68.51964 -56.92135,65.0953 -11.62338,-3.52827 -28.14878,-76.48255 -18.87087,-88.06052 8.68254,-10.64786 73.14576,8.35091 75.79222,22.96522 z"
         id="path4" /><path
         style="color:#000000;fill:#000000;-inkscape-stroke:none"
         d="m 310.66406,164.30469 c -1.66092,0.0472 -3.20602,0.19186 -4.61523,0.44726 -2.81842,0.5108 -5.1842,1.44593 -6.68555,3.28711 l -0.006,0.006 -0.004,0.006 c -1.51974,1.89649 -2.26463,4.55666 -2.69922,7.82617 -0.43459,3.26952 -0.49985,7.17134 -0.28321,11.50391 0.43329,8.66515 2.00723,19.04945 4.23633,29.18945 2.2291,10.14001 5.10918,20.01901 8.20313,27.67188 1.54697,3.82643 3.1406,7.09551 4.78711,9.60351 1.6465,2.508 3.28396,4.36723 5.48437,5.03516 l 0.008,0.004 0.008,0.002 c 2.1976,0.64681 4.53812,-0.0427 7.12695,-1.28516 2.58882,-1.24246 5.4668,-3.15997 8.55664,-5.58008 6.17968,-4.8402 13.18532,-11.69953 19.76562,-19.15234 6.58031,-7.45281 12.72321,-15.48808 17.125,-22.70508 4.4018,-7.21699 7.26371,-13.44001 6.57422,-18.29883 l -0.004,-0.0332 -0.006,-0.0332 c -0.87192,-4.81494 -5.88939,-8.70456 -12.60547,-12.4668 -6.71609,-3.76224 -15.38301,-7.20308 -24.24805,-9.85547 -8.86503,-2.65239 -17.90921,-4.51157 -25.40625,-5.03711 -1.87426,-0.13138 -3.65157,-0.182 -5.3125,-0.13476 z m 0.0977,3.50586 c 1.52232,-0.0436 3.19013,-0.002 4.96875,0.12304 7.11447,0.49872 15.98156,2.30534 24.64844,4.89844 8.66687,2.5931 17.15266,5.97713 23.53906,9.55469 6.36607,3.56617 10.38679,7.51421 10.85937,10.00781 0.3825,2.84549 -1.86376,9.0036 -6.09765,15.94531 -4.24841,6.96551 -10.29122,14.8847 -16.75977,22.21094 -6.46855,7.32625 -13.37396,14.07227 -19.29883,18.71289 -2.96243,2.32031 -5.68654,4.11156 -7.91211,5.17969 -2.22059,1.06574 -3.90143,1.28891 -4.61523,1.08203 -0.70681,-0.21745 -2.1234,-1.40548 -3.56641,-3.60352 -1.44577,-2.20224 -2.97689,-5.30209 -4.46875,-8.99218 -2.9837,-7.38019 -5.83387,-17.1245 -8.02929,-27.11133 -2.19543,-9.98683 -3.74112,-20.23296 -4.16016,-28.61328 -0.20952,-4.19016 -0.13431,-7.91519 0.25781,-10.86524 0.39146,-2.94505 1.15875,-5.09158 1.95703,-6.09179 0.67117,-0.81929 2.21484,-1.61839 4.58985,-2.04883 1.18957,-0.21559 2.56556,-0.34506 4.08789,-0.38867 z"
         id="path8" /></g><g
       id="path1-3-7-40"><path
         style="color:#000000;fill:url(#linearGradient22);-inkscape-stroke:none"
         d="m 394.5843,324.56186 c -12.45313,7.3002 -73.42989,-24.90385 -74.29719,-38.16649 -0.77471,-13.28487 56.2718,-54.35127 69.21019,-48.44624 11.94795,5.5872 16.73138,79.07929 5.087,86.61273 z"
         id="path2" /><path
         style="color:#000000;fill:#000000;-inkscape-stroke:none"
         d="m 386.62109,235.60742 c -1.30462,-0.0231 -2.70777,0.15704 -4.20117,0.46875 -2.9868,0.62343 -6.3689,1.83811 -10.02344,3.48633 -7.30907,3.29643 -15.69653,8.33838 -23.66015,13.98437 -7.96362,5.646 -15.48999,11.88764 -21.04102,17.62696 -2.77551,2.86966 -5.05737,5.60776 -6.66601,8.14453 -1.60864,2.53676 -2.62497,4.8693 -2.49024,7.17969 v 0.006 0.006 c 0.15051,2.3016 1.43832,4.47308 3.33203,6.75195 1.89372,2.27887 4.47276,4.65855 7.55274,7.09375 6.15995,4.8704 14.32463,9.94883 22.85937,14.38867 8.53474,4.43984 17.42476,8.23161 25.06641,10.47852 3.82083,1.12345 7.3265,1.86447 10.375,2.08593 3.0485,0.22147 5.6781,-0.024 7.74609,-1.23632 l 0.0332,-0.0195 0.0312,-0.0195 c 2.02376,-1.30929 3.29242,-3.62354 4.3164,-6.54687 1.02399,-2.92334 1.7583,-6.53394 2.26953,-10.63281 1.02246,-8.19775 1.13783,-18.34303 0.51563,-28.43555 -0.6222,-10.09252 -1.98149,-20.11457 -3.9668,-28.0625 -0.99265,-3.97397 -2.13684,-7.42686 -3.47265,-10.1582 -1.33581,-2.73135 -2.8165,-4.83301 -4.95704,-5.83399 l -0.008,-0.004 -0.008,-0.004 c -1.09363,-0.49913 -2.2989,-0.72496 -3.60352,-0.74805 z m -0.084,3.5332 c 0.94953,0.0176 1.70305,0.16254 2.22656,0.4004 0.8465,0.39973 2.12269,1.8144 3.28711,4.19531 1.16721,2.3866 2.26668,5.64943 3.2207,9.46875 1.90806,7.63864 3.25754,17.50717 3.86914,27.42773 0.61161,9.92056 0.48616,19.91173 -0.49609,27.78711 -0.49113,3.93769 -1.20305,7.34867 -2.09961,9.9082 -0.88862,2.53688 -2.00303,4.14687 -2.88672,4.73438 -1.05295,0.60238 -3.03077,0.94439 -5.67968,0.75195 -2.67316,-0.19419 -5.98012,-0.87486 -9.64063,-1.95117 -7.32102,-2.15263 -16.06497,-5.87009 -24.43945,-10.22656 -8.37449,-4.35647 -16.39452,-9.35947 -22.30078,-14.0293 -2.95314,-2.33491 -5.37761,-4.59166 -7.03321,-6.58398 -1.6539,-1.99029 -2.45958,-3.72379 -2.52734,-4.73828 -0.0564,-1.01212 0.53854,-2.86526 1.94922,-5.08985 1.41334,-2.22879 3.56271,-4.82971 6.22851,-7.58594 5.33162,-5.51245 12.73038,-11.662 20.54883,-17.20507 7.81845,-5.54308 16.07042,-10.49057 23.07227,-13.64844 3.50092,-1.57894 6.69244,-2.70598 9.29883,-3.25 1.30319,-0.27201 2.45024,-0.38285 3.40234,-0.36524 z"
         id="path3" /></g></g></svg>
