<?xml version="1.0" encoding="UTF-8" standalone="no"?>
<!-- Created with Inkscape (http://www.inkscape.org/) -->

<svg
   width="740mm"
   height="211.42799mm"
   viewBox="0 0 740 211.42799"
   version="1.1"
   id="svg1"
   inkscape:version="1.3.2 (091e20e, 2023-11-25, custom)"
   xml:space="preserve"
   inkscape:export-filename="app_banner.png"
   inkscape:export-xdpi="17.863735"
   inkscape:export-ydpi="17.863735"
   sodipodi:docname="app_logo.svg"
   xmlns:inkscape="http://www.inkscape.org/namespaces/inkscape"
   xmlns:sodipodi="http://sodipodi.sourceforge.net/DTD/sodipodi-0.dtd"
   xmlns:xlink="http://www.w3.org/1999/xlink"
   xmlns="http://www.w3.org/2000/svg"
   xmlns:svg="http://www.w3.org/2000/svg"><sodipodi:namedview
     id="namedview1"
     pagecolor="#505050"
     bordercolor="#eeeeee"
     borderopacity="1"
     inkscape:showpageshadow="0"
     inkscape:pageopacity="0"
     inkscape:pagecheckerboard="0"
     inkscape:deskcolor="#505050"
     inkscape:document-units="mm"
     inkscape:zoom="0.32279167"
     inkscape:cx="1251.5812"
     inkscape:cy="571.57609"
     inkscape:window-width="1920"
     inkscape:window-height="1171"
     inkscape:window-x="-9"
     inkscape:window-y="-9"
     inkscape:window-maximized="1"
     inkscape:current-layer="layer1" /><defs
     id="defs1"><linearGradient
       id="linearGradient14"
       inkscape:collect="always"><stop
         style="stop-color:#aa5cc3;stop-opacity:1;"
         offset="0"
         id="stop14" /><stop
         style="stop-color:#00a4dc;stop-opacity:1;"
         offset="1"
         id="stop15" /></linearGradient><linearGradient
       id="paint0_linear_2138_3705"
       x1="11.9999"
       y1="30.000601"
       x2="71.998901"
       y2="63.002399"
       gradientUnits="userSpaceOnUse"
       gradientTransform="matrix(44.528301,0,0,44.528301,866.26197,-1005.2493)"><stop
         stop-color="#AA5CC3"
         id="stop10"
         offset="0"
         style="stop-color:#009264;stop-opacity:1;" /><stop
         offset="1"
         stop-color="#00A4DC"
         id="stop11"
         style="stop-color:#a49844;stop-opacity:1;" /></linearGradient><linearGradient
       inkscape:collect="always"
       xlink:href="#linearGradient14"
       id="linearGradient16"
       gradientUnits="userSpaceOnUse"
       x1="344.19385"
       y1="414.36868"
       x2="1581.2207"
       y2="1093.6549"
       gradientTransform="matrix(0.19410668,0,0,0.21436235,-14.007585,-37.778181)" /><linearGradient
       inkscape:collect="always"
       xlink:href="#linearGradient14"
       id="linearGradient17"
       gradientUnits="userSpaceOnUse"
       x1="344.19385"
       y1="414.36868"
       x2="1509.3508"
       y2="1121.4755"
       gradientTransform="matrix(0.19410668,0,0,0.21436235,-14.007585,-37.778181)" /><linearGradient
       inkscape:collect="always"
       xlink:href="#linearGradient14"
       id="linearGradient18"
       gradientUnits="userSpaceOnUse"
       x1="344.19385"
       y1="414.36868"
       x2="1509.3508"
       y2="1121.4755"
       gradientTransform="matrix(0.19410668,0,0,0.21436235,-14.007585,-37.778181)" /><linearGradient
       inkscape:collect="always"
       xlink:href="#linearGradient14"
       id="linearGradient19"
       gradientUnits="userSpaceOnUse"
       x1="344.19385"
       y1="414.36868"
       x2="1509.3508"
       y2="1121.4755"
       gradientTransform="matrix(0.19410668,0,0,0.21436235,-14.007585,-37.778181)" /><linearGradient
       inkscape:collect="always"
       xlink:href="#linearGradient14"
       id="linearGradient20"
       gradientUnits="userSpaceOnUse"
       x1="344.19385"
       y1="414.36868"
       x2="1509.3508"
       y2="1121.4755"
       gradientTransform="matrix(0.19410668,0,0,0.21436235,-14.007585,-37.778181)" /><linearGradient
       inkscape:collect="always"
       xlink:href="#linearGradient14"
       id="linearGradient21"
       gradientUnits="userSpaceOnUse"
       x1="344.19385"
       y1="414.36868"
       x2="1509.3508"
       y2="1121.4755"
       gradientTransform="matrix(0.19410668,0,0,0.21436235,-14.007585,-37.778181)" /><linearGradient
       inkscape:collect="always"
       xlink:href="#linearGradient14"
       id="linearGradient22"
       gradientUnits="userSpaceOnUse"
       x1="344.19385"
       y1="414.36868"
       x2="1509.3508"
       y2="1121.4755"
       gradientTransform="matrix(0.19410668,0,0,0.21436235,-14.007585,-37.778181)" /></defs><g
     inkscape:label="Ebene 1"
     inkscape:groupmode="layer"
     id="layer1"><path
       style="fill:#000000;stroke-width:0.933996"
       d="m 13.301704,130.08704 c 4.215815,-14.38237 7.841048,-28.35452 14.625432,-41.468541 5.33927,-10.32067 11.85771,-20.35774 20.25064,-28.7571 8.60979,-8.6164 18.89491,-16.06423 30.15091,-21.46363 14.85096,-7.12385 31.267534,-12.3794 47.926454,-13.75338 12.19432,-1.00573 24.75995,0.80313 36.45111,4.1677 11.94913,3.43881 23.37378,8.9912 33.301,16.04562 9.60248,6.82368 17.66557,15.56281 24.52571,24.79778 6.27375,8.44552 10.93651,17.91785 14.85046,27.50677 3.6217,8.872951 7.44461,16.934811 7.87522,27.506781 0.16227,3.98319 6.89496,3.63141 9.67531,7.91863 6.96588,8.34674 3.19109,13.54195 0.90002,19.79652 -2.10405,5.74395 -7.4455,10.22036 -12.60033,13.96179 -9.00296,6.53436 -19.9929,10.5617 -30.82597,13.96175 -11.15869,3.50225 -22.89597,5.72208 -34.65105,6.45994 -10.64725,0.66834 -21.28171,-2.08639 -31.95097,-1.87545 -7.08839,0.14014 -14.72365,1.22632 -21.15064,2.08385 -19.11893,-0.30319 -39.814754,1.07583 -59.401794,-1.66709 -14.46543,-2.02572 -29.42949,-4.39623 -42.301265,-10.836 -6.499511,-3.25173 -13.2986468,-7.44827 -16.6505018,-13.54501 -2.597314,-4.7243 -2.953717,-10.69187 -1.575073,-15.83723 1.553208,-5.79668 8.9043298,-9.30293 10.5753278,-15.0037 z"
       id="path5"
       sodipodi:nodetypes="saaaaaaaascaaaaacaaaas" /><path
       style="fill:#ffffff;stroke-width:0.933996"
       d="m 129.43401,108.80836 v -6.18872"
       id="path1" /><path
       style="fill:url(#linearGradient17);fill-opacity:1;fill-rule:nonzero;stroke-width:0.933994"
       d="m 137.19698,182.45418 c -9.16066,-7.63223 -14.11461,-8.14891 -22.05066,-10.00245 -15.06537,-3.51868 -31.215955,0.4963 -46.57641,-1.66708 -12.824691,-1.80624 -26.94442,-2.49382 -37.576134,-9.37731 -3.30857,-2.14213 -7.351212,-5.44649 -6.975212,-9.16892 0.661993,-6.55377 8.994071,-10.7176 15.300465,-13.75339 7.113297,-3.42423 15.639819,-4.81932 23.62571,-4.1677 8.394811,0.68499 16.516749,4.14396 23.625714,8.33539 8.63546,5.09144 16.749537,15.48564 22.050667,19.79655 13.76238,11.69293 15.18703,10.57173 23.85072,13.96176 9.16619,3.58665 19.1054,5.7418 29.02588,6.45994 13.12729,0.95026 26.62802,0.135 39.37619,-2.91741 12.99884,-3.11241 25.98298,-7.90106 36.6761,-15.42045 6.78399,-4.7705 14.77723,-10.38987 16.42551,-18.12947 1.05108,-4.93549 -1.46636,-10.5189 -4.95015,-14.37854 -0.92529,-1.02512 -3.82513,-1.87546 -3.82513,-1.87546 -3.39288,10.18209 -10.07508,16.5448 -17.77553,22.50554 -7.36095,5.69795 -16.69005,9.10655 -25.87578,11.66954 -10.35963,2.89053 -21.36505,4.36027 -32.17597,3.95932 -9.9659,-0.36962 -18.34859,-0.302 -29.25088,-5.83477 -11.4817,-5.82683 -19.08472,-11.3478 -27.90085,-17.92109 -6.86205,-5.11633 -11.60866,-12.31016 -19.350585,-16.67077 -6.281259,-4.52411 -13.451135,-6.99078 -20.925632,-8.75216 -13.444669,-0.84473 -23.968027,-1.91104 -42.301278,6.45993 -6.675203,4.03179 -13.350403,8.31975 -20.025606,15.62885 -3.1487345,5.30382 -4.9637962,7.01127 -4.966841,10.97923 -0.0025,3.26001 1.8630907,5.3051 4.0668129,9.02569 5.4630431,9.22338 19.9046691,13.1083 29.4758931,15.83724 12.77064,2.72241 26.337701,5.97165 35.101062,6.04316 16.641525,0.89052 33.143234,1.58684 48.601464,0.83355 5.67392,-0.41034 16.98435,-0.0558 15.30046,-1.45872 z"
       id="path6"
       sodipodi:nodetypes="saaaaaaacaaaaaacaaasaccccascccs" /><path
       style="fill:url(#linearGradient16);fill-opacity:1;fill-rule:nonzero;stroke-width:0.933994"
       d="m 19.743434,128.27418 c 6.784019,-3.76886 8.800102,-8.54676 22.050666,-11.04439 17.278461,-3.25686 16.81454,-2.9357 23.400708,-2.29223 11.572035,1.13058 22.918059,3.60577 31.725958,10.836 10.249644,8.41373 16.509244,16.33271 26.325794,22.71393 10.62535,6.90696 22.03244,13.63976 34.65105,16.46239 8.89452,1.98959 18.54343,1.93952 27.45083,0 18.02377,-3.92456 25.41672,-3.23027 49.7265,-22.92231 0,0 7.11525,-4.5269 6.75022,-12.08631 -0.61569,-12.75021 -5.1719,-24.78311 -10.57533,-36.258937 C 225.87609,82.269552 218.80404,71.315035 209.87419,62.007853 200.80218,52.552516 187.61161,42.744438 177.92322,38.251999 169.503,34.347605 159.76416,29.700512 145.74724,28.04115 c -13.17661,-1.559884 -28.51978,-1.278695 -41.85126,3.54254 -12.807832,4.63186 -20.454319,5.286072 -42.076272,21.880389 -7.677769,5.8925 -15.64818,13.436187 -22.275673,24.589392 -5.427673,9.134063 -10.158045,15.943898 -15.075456,31.674469 -1.152132,3.68562 -3.41541,10.15273 -4.725145,18.54624 z"
       id="path7"
       sodipodi:nodetypes="csssaaacsaassssssc" /><g
       id="path1-3-7"><path
         style="color:#000000;fill:url(#linearGradient18);-inkscape-stroke:none"
         d="M 41.597927,97.78974 C 39.940582,88.025867 69.296895,53.140174 76.775674,55.079255 84.249098,57.084837 96.046062,103.26236 90.328948,110.84112 84.975472,117.81421 43.537705,107.05405 41.597927,97.78974 Z"
         id="path11" /><path
         style="color:#000000;fill:#000000;-inkscape-stroke:none"
         d="m 77.056641,53.998047 c -1.414822,-0.366832 -2.894707,0.120409 -4.523438,0.966797 -1.62873,0.846388 -3.429022,2.130205 -5.357422,3.738281 -3.856799,3.216153 -8.205824,7.737981 -12.273437,12.628906 -4.067614,4.890926 -7.846977,10.143449 -10.529297,14.837891 -2.682321,4.694442 -4.400753,8.720793 -3.876953,11.80664 l 0.0039,0.02148 0.0039,0.02148 c 0.319805,1.527378 1.356528,2.860899 2.78711,4.117189 1.430581,1.25629 3.296338,2.44305 5.470703,3.57226 4.348729,2.25844 9.93718,4.27028 15.636718,5.7754 5.699539,1.50511 11.498801,2.50222 16.289063,2.67968 2.395131,0.0887 4.538066,-0.0252 6.326172,-0.41015 1.788106,-0.38494 3.277687,-1.02955 4.201172,-2.23243 l 0.0039,-0.004 0.002,-0.004 c 0.934563,-1.23888 1.365199,-2.95093 1.585938,-5.04492 0.220738,-2.09399 0.195308,-4.58329 -0.01758,-7.341797 C 92.363289,93.609943 91.180478,87.019495 89.583984,80.599609 87.98749,74.179724 85.980327,67.940929 83.875,63.125 82.822337,60.717036 81.748129,58.665194 80.654297,57.099609 79.560465,55.534025 78.481508,54.380283 77.064453,54 l -0.0039,-0.002 z m -0.566407,2.162109 c 0.452217,0.123132 1.374371,0.850019 2.332032,2.220703 0.95944,1.373232 1.988986,3.317045 3.003906,5.638672 2.02984,4.643254 4.015608,10.798569 5.58789,17.121094 1.572283,6.322525 2.734722,12.822738 3.146485,18.158203 0.205881,2.667732 0.22265,5.045752 0.02344,6.935552 -0.198842,1.88627 -0.650894,3.27043 -1.144531,3.92773 -0.416041,0.53952 -1.388687,1.08361 -2.896484,1.4082 -1.510285,0.32513 -3.500641,0.44358 -5.773438,0.35938 -4.545593,-0.1684 -10.229232,-1.13415 -15.800781,-2.60547 -5.571549,-1.47132 -11.042079,-3.45089 -15.175781,-5.59766 -2.066851,-1.07338 -3.799603,-2.19137 -5.027344,-3.26953 -1.216905,-1.068645 -1.889774,-2.087117 -2.0625,-2.873046 -0.29642,-1.802222 1.027901,-5.783323 3.611328,-10.304687 2.589567,-4.532109 6.305552,-9.710944 10.304688,-14.519531 3.999135,-4.808588 8.289164,-9.255181 11.988281,-12.339844 1.849558,-1.542332 3.55533,-2.742294 4.957031,-3.470703 1.398024,-0.726499 2.468863,-0.905144 2.925781,-0.789063 z"
         id="path12" /></g><g
       id="path1-3-7-2"><path
         style="color:#000000;fill:url(#linearGradient19);-inkscape-stroke:none"
         d="m 90.182334,44.361941 c 5.556257,-7.812288 48.661956,-6.427391 52.271206,1.06176 3.56043,7.528539 -20.10811,47.763788 -29.03731,48.011387 -8.27708,0.150365 -28.263808,-41.355592 -23.233896,-49.073147 z"
         id="path13" /><path
         style="color:#000000;fill:#000000;-inkscape-stroke:none"
         d="m 117.07617,38.037109 c -6.02095,-0.154452 -12.09715,0.170763 -17.082029,1.041016 -4.984883,0.870253 -8.929008,2.114788 -10.722657,4.636719 l -0.01367,0.01758 -0.01172,0.01953 c -0.846261,1.298446 -1.051353,2.99503 -0.964844,4.988281 0.08651,1.993251 0.502986,4.309929 1.164062,6.847657 1.322153,5.075454 3.629571,11.029418 6.355469,16.742187 2.725899,5.712769 5.865089,11.174401 8.888669,15.251953 1.5118,2.038776 2.99048,3.731531 4.41993,4.953125 1.42944,1.221595 2.82264,2.044927 4.32812,2.017578 h 0.004 0.006 c 1.52846,-0.04238 3.01593,-0.845422 4.60351,-2.054687 1.58758,-1.209266 3.2715,-2.877176 5.01367,-4.876953 3.48435,-3.999556 7.1927,-9.328285 10.51367,-14.888672 3.32098,-5.560387 6.24735,-11.343642 8.13868,-16.265625 0.94566,-2.460992 1.63534,-4.703167 1.97851,-6.632813 0.34318,-1.929645 0.39716,-3.557422 -0.23242,-4.888672 v -0.0039 l -0.002,-0.002 c -0.63708,-1.321929 -1.92546,-2.24395 -3.57617,-3.039062 -1.65072,-0.795112 -3.71855,-1.447517 -6.08985,-1.990235 -4.7426,-1.085435 -10.6978,-1.718594 -16.71875,-1.873047 z m -0.0566,2.234375 c 5.90115,0.15138 11.74695,0.781939 16.27539,1.81836 2.26422,0.51821 4.19998,1.140642 5.61914,1.824218 1.41606,0.682084 2.2621,1.440165 2.5293,1.990235 0.2602,0.551381 0.3552,1.825362 0.0508,3.537109 -0.30459,1.712693 -0.95119,3.850982 -1.86328,6.22461 -1.82419,4.747255 -4.70541,10.44949 -7.97266,15.919921 -3.26725,5.470432 -6.92572,10.71891 -10.27929,14.56836 -1.67679,1.924725 -3.27966,3.498508 -4.68164,4.566406 -1.39901,1.065629 -2.60218,1.574149 -3.30664,1.595703 -0.56479,0.0079 -1.60498,-0.433503 -2.83008,-1.480469 C 109.33233,89.786311 107.93171,88.201845 106.48438,86.25 103.58971,82.34631 100.49503,76.976795 97.818359,71.367187 95.141685,65.75758 92.876774,59.898157 91.607422,55.025391 90.972746,52.589008 90.589763,50.397735 90.513672,48.644531 90.43832,46.908348 90.704887,45.637427 91.109375,45 c 0.994309,-1.38149 4.508099,-2.88946 9.269535,-3.720703 4.77291,-0.833248 10.73947,-1.159192 16.64062,-1.007813 z"
         id="path14" /></g><g
       id="path1-3-7-4"><path
         style="color:#000000;fill:url(#linearGradient20);-inkscape-stroke:none"
         d="m 105.51426,113.63963 c 1.91261,-9.70679 41.24531,-29.232688 47.45193,-24.233366 6.17826,5.058285 0.77956,52.666546 -7.1569,57.192176 -7.38812,4.1239 -41.77148,-23.59089 -40.29503,-32.95881 z"
         id="path15" /><path
         style="color:#000000;fill:#000000;-inkscape-stroke:none"
         d="m 149.17383,87.498047 c -1.80607,0.08033 -3.92373,0.490251 -6.27149,1.144531 -4.69551,1.308561 -10.2998,3.606241 -15.77539,6.367188 -5.47559,2.760946 -10.81193,5.981174 -14.94531,9.160154 -4.13338,3.17898 -7.15881,6.18413 -7.76367,9.25391 l -0.004,0.0215 -0.004,0.0195 c -0.24308,1.5423 0.23864,3.1867 1.10742,4.94532 0.86878,1.75861 2.16262,3.64802 3.76367,5.61718 3.2021,3.93833 7.63591,8.18628 12.35156,12.01758 4.71566,3.83131 9.70256,7.23871 14.04688,9.45703 2.17215,1.10916 4.18224,1.92437 5.96484,2.33789 1.7826,0.41353 3.39184,0.46958 4.70899,-0.26562 l 0.006,-0.002 0.004,-0.004 c 1.33458,-0.76102 2.33531,-2.16969 3.2793,-4.00977 0.94398,-1.84008 1.79832,-4.14556 2.57422,-6.77929 1.5518,-5.26747 2.78358,-11.84401 3.57422,-18.44336 0.79063,-6.59935 1.1393,-13.21061 0.89648,-18.546878 -0.12141,-2.668135 -0.38794,-5.015536 -0.8418,-6.917968 -0.45385,-1.902433 -1.0363,-3.40036 -2.17187,-4.330078 l -0.004,-0.002 -0.002,-0.0039 c -1.13874,-0.917233 -2.68807,-1.117436 -4.49414,-1.037109 z m 0.0996,2.232422 c 1.53627,-0.06833 2.57118,0.213486 2.98633,0.544922 0.40896,0.336364 1.01016,1.430378 1.4121,3.115234 0.40247,1.687006 0.66398,3.922832 0.78125,6.5 0.23455,5.154335 -0.10399,11.677045 -0.88281,18.177735 -0.77881,6.50069 -1.99853,12.9901 -3.49804,18.08008 -0.74976,2.54498 -1.57176,4.74114 -2.41797,6.39062 -0.84507,1.64726 -1.7452,2.71417 -2.39453,3.08594 -0.53087,0.29455 -1.60784,0.38589 -3.11133,0.0371 -1.50611,-0.34938 -3.38401,-1.0968 -5.45117,-2.15234 -4.13433,-2.1111 -9.03517,-5.44634 -13.6543,-9.19922 -4.61914,-3.75289 -8.96695,-7.92932 -12.02734,-11.69336 -1.5302,-1.88202 -2.73633,-3.66326 -3.49415,-5.19727 -0.75103,-1.52028 -1.0202,-2.77723 -0.90234,-3.57812 0.35947,-1.78515 2.96009,-4.85038 6.92578,-7.90039 3.97338,-3.05593 9.21541,-6.226594 14.58789,-8.935551 5.37248,-2.708956 10.8844,-4.961116 15.36914,-6.210937 2.24237,-0.62491 4.2311,-0.995942 5.77149,-1.064453 z"
         id="path16" /></g><g
       id="path1-3-7-9"><path
         style="color:#000000;fill:url(#linearGradient21);-inkscape-stroke:none"
         d="m 206.32279,64.95155 c 1.39268,9.81416 -28.89359,43.71648 -36.31661,41.53171 -7.41588,-2.25109 -17.95932,-48.796937 -12.03988,-56.183842 5.53958,-6.793486 46.66802,5.327998 48.35649,14.652132 z"
         id="path17" /><path
         style="color:#000000;fill:#000000;-inkscape-stroke:none"
         d="m 167.69922,47.296875 c -2.39161,-0.16765 -4.5358,-0.126678 -6.33399,0.199219 -1.79818,0.325896 -3.30774,0.922958 -4.26562,2.097656 l -0.002,0.0039 -0.004,0.0039 c -0.96961,1.209983 -1.44343,2.908146 -1.7207,4.994141 -0.27728,2.085995 -0.31986,4.573648 -0.18164,7.337891 0.27644,5.528485 1.28092,12.153583 2.70312,18.623047 1.4222,6.469463 3.25844,12.773614 5.23242,17.65625 0.98699,2.441319 2.00615,4.526809 3.05664,6.126949 1.0505,1.60014 2.09416,2.78674 3.49805,3.21289 l 0.004,0.002 h 0.006 c 1.40209,0.41267 2.89517,-0.0256 4.54687,-0.81836 1.65171,-0.79271 3.48762,-2.01649 5.45899,-3.56055 3.94272,-3.08812 8.413,-7.463751 12.61132,-12.218749 4.19833,-4.754998 8.11738,-9.881786 10.92578,-14.486328 2.80841,-4.604542 4.63522,-8.575794 4.19532,-11.675781 l -0.004,-0.02148 -0.004,-0.02148 c -0.55629,-3.071997 -3.75606,-5.552765 -8.04101,-7.953125 -4.28496,-2.40036 -9.81664,-4.594846 -15.47266,-6.287109 -5.65601,-1.692263 -11.42577,-2.879545 -16.20898,-3.214844 z m -0.15625,2.230469 c 4.53913,0.318189 10.19502,1.470564 15.72461,3.125 5.52959,1.654435 10.94492,3.813173 15.01953,6.095703 4.05848,2.273491 6.62097,4.789695 6.92578,6.380859 0.24781,1.812926 -1.18261,5.744197 -3.88672,10.177735 -2.71054,4.444092 -6.56633,9.495675 -10.69336,14.169921 -4.12702,4.674247 -8.5343,8.978669 -12.31445,11.939458 -1.89007,1.48039 -3.62693,2.6232 -5.04688,3.30468 -1.41745,0.68029 -2.49027,0.82373 -2.94531,0.69141 -0.45092,-0.13865 -1.35466,-0.89635 -2.27539,-2.29883 -0.92242,-1.40506 -1.89974,-3.38395 -2.85156,-5.73828 -1.90365,-4.70866 -3.72233,-10.92514 -5.12305,-17.296875 -1.40071,-6.371735 -2.38499,-12.909095 -2.65234,-18.255859 -0.13368,-2.673382 -0.0861,-5.051424 0.16406,-6.933594 0.24972,-1.878669 0.73882,-3.246478 1.24805,-3.884766 0.42817,-0.522756 1.41234,-1.03395 2.92773,-1.308594 1.51793,-0.275102 3.50973,-0.327063 5.7793,-0.167968 z"
         id="path18" /></g><g
       id="path1-3-7-40"><path
         style="color:#000000;fill:url(#linearGradient22);-inkscape-stroke:none"
         d="m 217.85275,149.45742 c -7.94527,4.65763 -46.8493,-15.889 -47.40265,-24.35075 -0.49427,-8.47593 35.9022,-34.676869 44.15707,-30.909378 7.62295,3.564711 10.67486,50.453688 3.24558,55.260128 z"
         id="path19" /><path
         style="color:#000000;fill:#000000;-inkscape-stroke:none"
         d="m 212.77148,92.703125 c -0.83236,-0.01473 -1.72687,0.09995 -2.67968,0.298828 -1.90562,0.397756 -4.06484,1.173024 -6.39649,2.224609 -4.66329,2.103172 -10.01285,5.319648 -15.09375,8.921878 -5.0809,3.60222 -9.88219,7.58433 -13.42383,11.24609 -1.77081,1.83088 -3.22757,3.57878 -4.2539,5.19727 -1.02634,1.61849 -1.6758,3.10602 -1.58985,4.58008 v 0.004 l 0.002,0.004 c 0.096,1.46845 0.91678,2.85464 2.125,4.30859 1.20821,1.45395 2.85329,2.9717 4.81836,4.52539 3.93013,3.10739 9.1387,6.34701 14.58398,9.17969 5.44529,2.83268 11.11866,5.25199 15.99414,6.68555 2.43774,0.71677 4.67416,1.19073 6.61914,1.33203 1.94499,0.1413 3.622,-0.0156 4.94141,-0.78907 l 0.0215,-0.0137 0.0195,-0.0117 c 1.29119,-0.83534 2.10059,-2.3126 2.75391,-4.17773 0.65332,-1.86513 1.12109,-4.16806 1.44727,-6.7832 0.65234,-5.23028 0.72705,-11.70341 0.33007,-18.14258 -0.39697,-6.43917 -1.26459,-12.83341 -2.53125,-17.9043 -0.63332,-2.53544 -1.36257,-4.739785 -2.21484,-6.48242 -0.85226,-1.742635 -1.79837,-3.082066 -3.16406,-3.720703 l -0.004,-0.002 -0.006,-0.0039 c -0.69775,-0.318449 -1.46646,-0.461832 -2.29883,-0.476562 z m -0.0527,2.253906 c 0.60584,0.01121 1.08591,0.106048 1.41992,0.257813 0.54008,0.255864 1.35533,1.155979 2.09766,2.673828 0.74469,1.522685 1.446,3.604238 2.05469,6.041018 1.21736,4.87356 2.07853,11.17054 2.46875,17.5 0.39021,6.32945 0.31028,12.70391 -0.31641,17.72851 -0.31335,2.51231 -0.76783,4.68925 -1.33984,6.32227 -0.5672,1.61926 -1.27788,2.64705 -1.8418,3.02148 -0.67169,0.38448 -1.93264,0.60132 -3.62305,0.47852 -1.70551,-0.1239 -3.81689,-0.55744 -6.15234,-1.24414 -4.67092,-1.37341 -10.24876,-3.7459 -15.5918,-6.52539 -5.34304,-2.77949 -10.46023,-5.97176 -14.22851,-8.95117 -1.88415,-1.48971 -3.43004,-2.93005 -4.48633,-4.20118 -1.05315,-1.26734 -1.56829,-2.36979 -1.61328,-3.01757 v -0.002 c -0.037,-0.64523 0.34304,-1.829 1.24414,-3.25 0.90173,-1.422 2.27183,-3.08133 3.97265,-4.83984 3.40165,-3.51703 8.12305,-7.44001 13.11133,-10.97656 4.98828,-3.53656 10.25343,-6.694222 14.7207,-8.708988 2.23364,-1.007383 4.26873,-1.727123 5.93164,-2.074219 0.83146,-0.173548 1.56443,-0.243659 2.17188,-0.232422 z"
         id="path20" /></g><g
       id="text14"
       style="font-size:153.333px;line-height:0;font-family:Quicksand;-inkscape-font-specification:Quicksand;letter-spacing:0px;fill:#ffffff;stroke-width:54.3306"
       aria-label="Turtlefin"
       transform="translate(-5.9469326e-6,-264.286)"><path
         style="font-weight:bold;-inkscape-font-specification:'Quicksand Bold';letter-spacing:-43.125px"
         d="m 315.17394,425.96655 q -4.29332,0 -7.05332,-2.60666 -2.75999,-2.75999 -2.75999,-6.74665 V 327.6801 h 19.93329 v 88.93314 q 0,3.98666 -2.91333,6.74665 -2.75999,2.60666 -7.20665,2.60666 z m -33.88659,-89.6998 q -3.98666,0 -6.74665,-2.45333 -2.60666,-2.45332 -2.60666,-6.43998 0,-3.98666 2.60666,-6.28665 2.75999,-2.45333 6.74665,-2.45333 h 68.07985 q 3.98665,0 6.59332,2.45333 2.75999,2.45332 2.75999,6.43998 0,3.98666 -2.75999,6.43999 -2.60667,2.29999 -6.59332,2.29999 z"
         id="path2" /><path
         style="font-weight:bold;-inkscape-font-specification:'Quicksand Bold';letter-spacing:-17.25px"
         d="m 391.03525,343.9334 q 3.98666,0 6.59332,2.76 2.60666,2.60666 2.60666,6.59331 v 38.94658 q 0,16.2533 -9.04664,25.75995 -9.04665,9.50664 -26.06661,9.50664 -17.01996,0 -26.06661,-9.50664 -8.89331,-9.50665 -8.89331,-25.75995 v -38.94658 q 0,-3.98665 2.60666,-6.59331 2.60666,-2.76 6.59332,-2.76 3.98665,0 6.59331,2.76 2.60667,2.60666 2.60667,6.59331 v 38.94658 q 0,9.35332 4.13999,13.95331 4.13999,4.44665 12.41997,4.44665 8.43331,0 12.5733,-4.44665 4.13999,-4.59999 4.13999,-13.95331 v -38.94658 q 0,-3.98665 2.60667,-6.59331 2.60666,-2.76 6.59331,-2.76 z"
         id="path3" /><path
         style="font-weight:bold;-inkscape-font-specification:'Quicksand Bold';letter-spacing:-18.6876px"
         d="m 412.11848,425.96655 q -3.98666,0 -6.59332,-2.60666 -2.60666,-2.75999 -2.60666,-6.74665 v -63.32653 q 0,-3.98665 2.60666,-6.59331 2.60666,-2.76 6.59332,-2.76 3.98666,0 6.59332,2.76 2.60666,2.60666 2.60666,6.59331 v 14.41331 l -1.07333,-10.27331 q 1.68666,-3.68 4.29332,-6.43999 2.76,-2.91333 6.13332,-4.75332 3.37333,-1.99333 7.20666,-2.91333 3.83332,-0.92 7.66664,-0.92 4.59999,0 7.66665,2.60666 3.22,2.60666 3.22,6.13332 0,5.05999 -2.60666,7.35999 -2.60666,2.14666 -5.67332,2.14666 -2.91333,0 -5.36666,-1.07333 -2.29999,-1.07333 -5.36665,-1.07333 -2.76,0 -5.67332,1.37999 -2.76,1.22667 -5.21333,3.98666 -2.29999,2.75999 -3.83332,6.89999 -1.38,3.98665 -1.38,9.50664 v 36.33992 q 0,3.98666 -2.60666,6.74665 -2.60666,2.60666 -6.59332,2.60666 z"
         id="path4" /><path
         style="font-weight:bold;-inkscape-font-specification:'Quicksand Bold';letter-spacing:-14.375px"
         d="m 451.69743,345.46673 h 36.33992 q 3.67999,0 6.13332,2.45333 2.45333,2.45333 2.45333,6.13332 0,3.52666 -2.45333,5.97999 -2.45333,2.29999 -6.13332,2.29999 h -36.33992 q -3.67999,0 -6.13332,-2.45333 -2.45332,-2.45332 -2.45332,-6.13332 0,-3.52666 2.45332,-5.82665 2.45333,-2.45333 6.13332,-2.45333 z m 16.40663,-19.16662 q 3.98666,0 6.43999,2.75999 2.60666,2.60666 2.60666,6.59332 v 68.23318 q 0,2.14666 0.76667,3.52666 0.91999,1.38 2.29999,1.99333 1.53333,0.61333 3.21999,0.61333 1.84,0 3.37333,-0.61333 1.53333,-0.76667 3.52666,-0.76667 2.14666,0 3.83332,1.99333 1.84,1.99333 1.84,5.51999 0,4.29333 -4.75332,7.05332 -4.59999,2.75999 -9.96665,2.75999 -3.21999,0 -7.20665,-0.46 -3.83332,-0.61333 -7.35998,-2.60666 -3.37333,-2.14666 -5.67332,-6.43998 -2.3,-4.29333 -2.3,-11.80664 v -68.99985 q 0,-3.98666 2.60666,-6.59332 2.76,-2.75999 6.74665,-2.75999 z"
         id="path8" /><path
         style="font-weight:bold;-inkscape-font-specification:'Quicksand Bold';letter-spacing:-15.8125px"
         d="m 519.04897,416.61324 q 0,3.98666 -2.76,6.74665 -2.60666,2.60666 -6.59332,2.60666 -3.83332,0 -6.43998,-2.60666 -2.60666,-2.75999 -2.60666,-6.74665 v -94.75979 q 0,-3.98666 2.60666,-6.59332 2.75999,-2.75999 6.74665,-2.75999 3.98666,0 6.43999,2.75999 2.60666,2.60666 2.60666,6.59332 z"
         id="path9" /><path
         style="font-weight:bold;-inkscape-font-specification:'Quicksand Bold';letter-spacing:-17.25px"
         d="m 563.34307,427.49988 q -13.0333,0 -22.69328,-5.36665 -9.50665,-5.51999 -14.71997,-14.8733 -5.05999,-9.35331 -5.05999,-21.15996 0,-13.79996 5.51999,-23.45994 5.67332,-9.81331 14.71997,-15.02664 9.04664,-5.21332 19.16662,-5.21332 7.81998,0 14.71997,3.21999 7.05331,3.22 12.41997,8.89332 5.36665,5.51999 8.43331,12.87997 3.22,7.35998 3.22,15.63996 -0.15334,3.68 -2.91333,5.97999 -2.75999,2.3 -6.43999,2.3 h -58.5732 L 526.54315,375.98 h 56.27321 l -3.37333,3.06666 v -4.13999 q -0.30666,-4.44666 -3.21999,-7.97332 -2.75999,-3.52666 -7.05332,-5.51999 -4.13999,-2.14666 -8.89331,-2.14666 -4.59999,0 -8.58665,1.22666 -3.98666,1.22667 -6.89998,4.14 -2.91333,2.91332 -4.59999,7.81998 -1.68666,4.90665 -1.68666,12.41997 0,8.27998 3.37332,14.10664 3.52666,5.67332 8.89331,8.73998 5.51999,2.91332 11.65331,2.91332 5.67332,0 9.04665,-0.91999 3.37332,-0.92 5.36665,-2.14667 2.14667,-1.37999 3.83333,-2.29999 2.75999,-1.38 5.21332,-1.38 3.37333,0 5.51999,2.3 2.29999,2.29999 2.29999,5.36665 0,4.13999 -4.29332,7.51332 -3.98666,3.37332 -11.19331,5.97998 -7.20665,2.45333 -14.8733,2.45333 z m 76.74315,-114.99974 q 3.37333,0 6.59332,0.92 3.21999,0.91999 5.36665,3.06666 2.14667,1.99332 2.14667,5.36665 0,3.83333 -2.3,6.13332 -2.14666,2.14666 -5.05999,2.14666 -1.37999,0 -4.13999,-0.61333 -2.75999,-0.76666 -5.36665,-0.76666 -3.83333,0 -5.97999,1.68666 -1.99333,1.68666 -2.75999,3.98666 -0.76667,2.14666 -0.76667,3.83332 v 78.35316 q 0,3.98666 -2.60666,6.74665 -2.60666,2.60666 -6.59332,2.60666 -3.98666,0 -6.59332,-2.60666 -2.60666,-2.75999 -2.60666,-6.74665 v -78.19983 q 0,-10.88664 7.66665,-18.39996 7.66665,-7.51331 22.99995,-7.51331 z m 1.68666,32.96659 q 3.68,0 6.13332,2.45333 2.45333,2.29999 2.45333,5.97999 0,3.67999 -2.45333,6.13332 -2.45332,2.29999 -6.13332,2.29999 h -40.63324 q -3.67999,0 -6.13332,-2.29999 -2.45333,-2.45333 -2.45333,-6.13332 0,-3.68 2.45333,-5.97999 2.45333,-2.45333 6.13332,-2.45333 z m 40.47991,71.14651 q 0,3.98666 -2.60666,6.74665 -2.60666,2.60666 -6.59332,2.60666 -3.98665,0 -6.59331,-2.60666 -2.60667,-2.75999 -2.60667,-6.74665 v -63.32653 q 0,-3.98665 2.60667,-6.59331 2.60666,-2.76 6.59331,-2.76 3.98666,0 6.59332,2.76 2.60666,2.60666 2.60666,6.59331 z m -9.35331,-82.64648 q -5.21332,0 -7.35998,-1.68667 -2.14666,-1.68666 -2.14666,-5.97998 v -2.91333 q 0,-4.44666 2.29999,-5.97999 2.45333,-1.68666 7.35998,-1.68666 5.36666,0 7.51332,1.68666 2.14666,1.68667 2.14666,5.97999 v 2.91333 q 0,4.44665 -2.29999,6.13332 -2.3,1.53333 -7.51332,1.53333 z m 37.56655,8.43331 q 11.34664,0 17.17329,4.75332 5.97999,4.75333 8.12665,12.72664 2.3,7.81999 2.3,17.47996 v 39.25325 q 0,3.98666 -2.60666,6.74665 -2.60666,2.60666 -6.59332,2.60666 -3.98666,0 -6.59332,-2.60666 -2.60666,-2.75999 -2.60666,-6.74665 v -39.25325 q 0,-5.05998 -1.38,-9.04664 -1.22666,-4.13999 -4.59999,-6.59332 -3.37332,-2.45333 -9.65998,-2.45333 -6.13332,0 -10.42664,2.45333 -4.13999,2.45333 -6.43999,6.59332 -2.14666,3.98666 -2.14666,9.04664 v 39.25325 q 0,3.98666 -2.60666,6.74665 -2.60666,2.60666 -6.59332,2.60666 -3.98666,0 -6.59332,-2.60666 -2.60666,-2.75999 -2.60666,-6.74665 v -63.32653 q 0,-3.98665 2.60666,-6.59331 2.60666,-2.76 6.59332,-2.76 3.98666,0 6.59332,2.76 2.60666,2.60666 2.60666,6.59331 v 6.59332 l -2.29999,-0.46 q 1.37999,-2.60666 3.98666,-5.51998 2.60666,-3.06666 6.13331,-5.67332 3.52666,-2.60667 7.97332,-4.14 4.44666,-1.68666 9.65998,-1.68666 z"
         id="path10" /></g></g></svg>
